<?xml version="1.0" standalone="no"?><!DOCTYPE svg PUBLIC "-//W3C//DTD SVG 1.1//EN" "http://www.w3.org/Graphics/SVG/1.1/DTD/svg11.dtd"><svg t="1627528032533" class="icon" viewBox="0 0 1024 1024" version="1.1" xmlns="http://www.w3.org/2000/svg" p-id="922" xmlns:xlink="http://www.w3.org/1999/xlink" width="200" height="200"><defs><style type="text/css"></style></defs><path d="M66.048 66.368A51.2 51.2 0 0 1 132.672 61.12l5.76 4.928 794.88 788.224a51.2 51.2 0 0 1-66.432 77.632l-5.76-4.928L66.368 138.752a51.2 51.2 0 0 1-0.32-72.384z" p-id="923"></path><path d="M933.568 66.368a51.2 51.2 0 0 0-66.688-5.248l-5.76 4.928L66.368 854.272a51.2 51.2 0 0 0 66.304 77.632l5.76-4.928 794.88-788.224a51.2 51.2 0 0 0 0.256-72.384z" p-id="924"></path></svg>