<?xml version="1.0" encoding="UTF-8"?>
<svg width="16px" height="11px" viewBox="0 0 16 11" version="1.1" xmlns="http://www.w3.org/2000/svg" xmlns:xlink="http://www.w3.org/1999/xlink">
    <title>xiayibu-2备份 2</title>
    <g id="media" stroke="none" stroke-width="1" fill="none" fill-rule="evenodd">
        <g id="button" transform="translate(-672.000000, -462.000000)" fill="#094F9C" fill-rule="nonzero">
            <g id="xiayibu-2备份-2" transform="translate(672.000000, 462.000000)">
                <path d="M15.1085703,6.17070334 L11.0868865,10.1923559 C10.6736682,10.6055743 9.99751253,10.6055743 9.58429416,10.1923559 C9.17107578,9.77913753 9.17107578,9.10298191 9.58429416,8.68976353 L11.8115734,6.46248434 L1.64405147,6.46248434 C1.059677,6.46248434 0.581552437,5.98435978 0.581552437,5.39998531 C0.581552437,4.81561084 1.059677,4.33748628 1.64405147,4.33748628 L11.8115734,4.33748628 L9.58429416,2.11020709 C9.17107578,1.69698872 9.17107578,1.02083309 9.58429416,0.607614719 C9.99751253,0.194396344 10.6736682,0.194396344 11.0868865,0.607614719 L15.1085391,4.62926728 C15.3200702,4.84079834 15.4230076,5.12120434 15.4179763,5.39998531 C15.4230388,5.67876631 15.3200702,5.95917231 15.1085703,6.17070334 L15.1085703,6.17070334 Z" id="形状"></path>
            </g>
        </g>
    </g>
</svg>