<?xml version="1.0" encoding="UTF-8"?>
<svg width="20px" height="18px" viewBox="0 0 20 18" version="1.1" xmlns="http://www.w3.org/2000/svg" xmlns:xlink="http://www.w3.org/1999/xlink">
    <title>jingshi copy</title>
    <g id="中文官网经销商" stroke="none" stroke-width="1" fill="none" fill-rule="evenodd">
        <g id="登录弹窗pc" transform="translate(-881.000000, -415.000000)" fill="#D7150E" fill-rule="nonzero">
            <g id="编组-5" transform="translate(743.000000, 373.000000)">
                <g id="编组-4" transform="translate(138.000000, 40.000000)">
                    <g id="jingshi-copy" transform="translate(0.000000, 2.000000)">
                        <path d="M19.5948846,14.8210253 L11.7374266,1.32712579 C10.7800781,-0.442612677 9.21872001,-0.442612677 8.26270483,1.3285507 L0.403913492,14.8224503 C-0.553435035,16.5936136 0.253244436,18 2.16660812,18 L17.8828575,18 C19.7455537,18 20.5522331,16.540892 19.5948846,14.8224503 L19.5948846,14.8210253 Z M9,5.77730496 C9,5.36312057 9.46778464,5 9.99911739,5 C10.5339806,5 11,5.36312057 11,5.77730496 L11,11.2241135 C11,11.6382979 10.5339806,12 9.99911739,12 C9.46778466,12 9,11.6382979 9,11.222695 L9,5.77730496 Z M9.99873897,14.9999672 C9.45761381,15.0043982 9.01306405,14.5595844 9,14.0006351 C9,13.4755622 9.47540984,13 10,13 C10.5245902,13 11,13.4755622 11,14.0006351 C11,14.524405 10.5712484,14.9999672 10,14.9999672 L9.99873897,14.9999672 Z" id="形状"></path>
                    </g>
                </g>
            </g>
        </g>
    </g>
</svg>