<?xml version="1.0" encoding="UTF-8"?>
<svg width="16px" height="16px" viewBox="0 0 16 16" version="1.1" xmlns="http://www.w3.org/2000/svg" xmlns:xlink="http://www.w3.org/1999/xlink">
    <title>sousuo-2备份</title>
    <g id="调整后" stroke="none" stroke-width="1" fill="none" fill-rule="evenodd">
        <g id="03-已登陆点开" transform="translate(-94.000000, -34.000000)">
            <g id="sousuo-2备份" transform="translate(94.000000, 34.000000)">
                <path d="M7.5,13.9999768 C5.77516294,14.0045996 4.12011738,13.3191762 2.90360821,12.0963957 C1.68060937,10.8800325 0.995146782,9.22488997 1.00002587,7.50000051 C0.995146782,5.77511106 1.68060937,4.11996848 2.90360821,2.90360533 C4.12008801,1.68078101 5.77515272,0.995349668 7.5,1.00002375 C9.22484728,0.995349668 10.879912,1.68078101 12.0963918,2.90360533 C13.3193906,4.11996848 14.0048532,5.77511106 13.9999741,7.50000051 C14.0048532,9.22488997 13.3193906,10.8800325 12.0963918,12.0963957 C10.8798826,13.3191762 9.22483706,14.0045996 7.5,13.9999768 L7.5,13.9999768 Z M7.5,2 C4.46379515,2.00328389 2.00328389,4.46379515 2,7.5 C2.00328388,10.5362048 4.46379514,12.9967161 7.5,13 C10.5362049,12.9967161 12.9967161,10.5362049 13,7.5 C12.9967161,4.46379514 10.5362048,2.00328388 7.5,2 Z" id="形状" stroke="#333333" stroke-width="0.8" fill="#333333" fill-rule="nonzero"></path>
                <path d="M12.75,12.15 L14.85,14.25 C15.05,14.45 15.05,14.65 14.85,14.85 L14.85,14.85 C14.65,15.05 14.45,15.05 14.25,14.85 L12.15,12.75 C11.95,12.55 11.95,12.35 12.15,12.15 L12.15,12.15 C12.35,11.95 12.55,11.95 12.75,12.15 Z" id="路径" stroke="#333333" stroke-width="0.8" fill="#333333" fill-rule="nonzero"></path>
                <rect id="矩形" x="0" y="0" width="16" height="16"></rect>
            </g>
        </g>
    </g>
</svg>