<svg xmlns="http://www.w3.org/2000/svg" width="12" height="10.701" viewBox="0 0 12 10.701"><defs><style>.a{fill:#505050;}</style></defs><g transform="translate(0 -26.354)"><g transform="translate(0 26.353)"><path class="a" d="M.415,32.726h.977v3.91a.42.42,0,0,0,.419.419H4.673a.42.42,0,0,0,.419-.419V33.773H6.838v2.863a.42.42,0,0,0,.419.419H9.979a.42.42,0,0,0,.419-.419v-3.91h1.187a.417.417,0,0,0,.293-.712l-5.46-5.536a.417.417,0,0,0-.586-.007l-5.7,5.536a.419.419,0,0,0-.1.461A.408.408,0,0,0,.415,32.726Zm5.7-5.362,4.468,4.524h-.6a.42.42,0,0,0-.419.419v3.91H7.676V33.354a.42.42,0,0,0-.419-.419H4.673a.42.42,0,0,0-.419.419v2.863H2.23v-3.91a.42.42,0,0,0-.419-.419H1.448Z" transform="translate(0 -26.353)"/></g></g></svg>