<?xml version="1.0" encoding="UTF-8"?>
<svg width="60px" height="60px" viewBox="0 0 60 60" version="1.1" xmlns="http://www.w3.org/2000/svg" xmlns:xlink="http://www.w3.org/1999/xlink">
    <title>icons8-microsoft-edge1</title>
    <g id="海康学院" stroke="none" stroke-width="1" fill="none" fill-rule="evenodd">
        <g id="ie提示" transform="translate(-931.000000, -572.000000)" fill-rule="nonzero">
            <g id="编组-12" transform="translate(711.000000, 391.000000)">
                <g id="icons8-microsoft-edge1" transform="translate(220.000000, 181.000000)">
                    <path d="M54.9505017,47.1111507 C41.217332,64.9417578 22.8163856,60.3190078 15.582082,56.2665971 C4.55051953,50.0979275 -3.17907871,35.7343828 1.41365344,21.3708382 C2.76445701,17.1383203 4.82068025,13.5211686 7.38720703,10.5193828 C9.89369813,10.7144989 12.865466,10.7144989 16.3925642,10.4593471 C37.4050642,8.95845429 43.4086356,26.9691686 41.9077428,31.4718471 C41.1422874,33.7682131 38.4256714,34.5036506 35.9491981,34.6687489 C36.1893409,34.3385525 36.4895195,33.8582667 36.9097696,33.1378381 C38.2155463,30.8264632 38.3806446,26.3988292 34.3132249,23.7272399 C30.3958945,21.1757221 26.1633767,22.7516596 23.9870821,25.6483828 C21.8107874,28.5300971 22.6662964,32.8676774 23.4317517,34.7888203 C26.7337159,43.0737489 32.827341,45.2200257 36.9698052,46.4657667 C41.1122695,47.7115078 47.2659303,47.5314007 50.5528856,46.1805971 C53.8248321,44.8147846 54.7553856,44.0343203 55.3857606,44.7247311 C56.0311445,45.4151417 55.5808767,46.210615 54.9505017,47.1111507 Z" id="路径" fill="#1E88E5"></path>
                    <path d="M55.0135392,47.1111507 C49.790432,53.8951864 43.8919231,57.4222846 38.1885303,58.9832131 C38.1435035,58.9982221 38.0984767,58.9982221 38.0684588,59.013231 C34.7664946,59.643606 32.139932,59.1333025 29.2882356,58.5779721 C24.6504767,57.6774364 18.2566731,52.5593917 16.7107535,43.2988828 C15.3899678,35.3291417 19.1572088,28.5751239 25.1007445,24.4776864 C24.7105124,24.8379007 24.3653071,25.2281328 24.0501196,25.6483828 C21.8738249,28.5300971 22.7293339,32.8676774 23.4947892,34.7888203 C26.7967534,43.0737489 32.8903785,45.2200257 37.0328427,46.4657667 C41.175307,47.7115078 47.3289678,47.5314007 50.6159231,46.1805971 C53.8878696,44.8147846 54.8184231,44.0343203 55.4487981,44.7247311 C56.094182,45.4151417 55.6439142,46.210615 55.0135392,47.1111507 Z" id="路径" fill="#0D47A1"></path>
                    <path d="M34.3132249,0.328320336 C34.7241995,6.18657592 32.2266395,11.8720326 27.6342517,15.5323649 C26.103341,14.7519007 24.3172785,14.1215257 22.1559927,13.7012757 C16.0473588,12.5305793 6.2015017,15.3522579 2.19411777,22.3614275 C0.873332078,24.6577935 0.318001674,27.0141953 0.0778588404,29.19049 C0.137894531,26.6239632 0.573153483,23.9974007 1.41365344,21.3708382 C6.35159096,5.97167746 20.6851177,-1.47275109 34.3132249,0.328320336 Z" id="路径" fill="#00E5FF"></path>
                    <path d="M56.0161356,35.8094275 C51.8736713,39.9819096 46.6055374,40.101981 43.0033945,39.906865 C39.3862428,39.7267578 37.6151892,38.6761329 35.9642071,37.6555257 C34.298216,36.6199096 35.2437785,35.5993025 35.4088767,35.3741685 C35.5739749,35.1490346 35.979216,34.7588024 36.9097696,33.1378381 C37.3450285,32.3723828 37.660216,31.3667846 37.7202517,30.2711328 C44.6543767,25.1230704 49.6673588,17.5285525 51.4684302,8.74832926 C55.8510374,13.1759632 57.9222695,18.0688739 58.6577071,20.1701239 C59.9784927,23.9523739 60.984091,30.8114542 56.0161356,35.8094275 L56.0161356,35.8094275 Z" id="路径" fill="#00E676"></path>
                    <path d="M51.4684302,8.73332029 L51.4684302,8.74832926 C49.6673588,17.5285525 44.6543767,25.1230704 37.7202517,30.2711328 C37.7652785,29.6407578 37.7202517,28.9653561 37.5701624,28.2899543 C37.5701624,28.2599364 37.5551535,28.2299186 37.5551535,28.2149096 C37.1799303,26.0085971 36.0692695,23.2169364 34.2231713,21.0556507 C32.392082,18.894365 30.4409213,16.9582132 27.6342517,15.5323649 C32.2266395,11.8720326 34.7241995,6.18657592 34.3132249,0.328320336 C34.913582,0.403365002 35.4989302,0.493418574 36.0992874,0.613489955 C43.0184035,1.94928462 47.9713499,5.19121319 51.4684302,8.73332029 Z" id="路径" fill="#1DE9B6"></path>
                </g>
            </g>
        </g>
    </g>
</svg>