<?xml version="1.0" encoding="UTF-8"?>
<svg width="60px" height="60px" viewBox="0 0 60 60" version="1.1" xmlns="http://www.w3.org/2000/svg" xmlns:xlink="http://www.w3.org/1999/xlink">
    <title>huohu</title>
    <g id="海康学院" stroke="none" stroke-width="1" fill="none" fill-rule="evenodd">
        <g id="ie提示" transform="translate(-1198.000000, -572.000000)" fill-rule="nonzero">
            <g id="编组-12" transform="translate(711.000000, 391.000000)">
                <g id="huohu" transform="translate(487.000000, 181.000000)">
                    <path d="M1.36750002,29.675 C1.36750002,46.07 14.2675,59.3575 30.1775,59.3575 C46.09,59.3575 58.9925,46.07 58.9925,29.6775 C58.9925,13.2875 46.0875,0 30.1775,0 C14.2675,0 1.36750002,13.2875 1.36750002,29.675" id="路径" fill="#1370B3"></path>
                    <path d="M1.36750002,32.0675 C1.36750002,47.14 14.2675,59.3575 30.1775,59.3575 C46.09,59.3575 58.9925,47.14 58.9925,32.0675 C58.9925,16.995 46.0875,4.7775 30.1775,4.7775 C14.2675,4.7775 1.36750002,16.995 1.36750002,32.0675 Z" id="路径" fill="#1678BC"></path>
                    <path d="M44.26,6.96250002 L39.6325,5.2725 L45.485,10.4475 L43.2975,10.315 L42.8475,11.24 C41.745,10.3375 40.4125,9.88999998 38.855,9.915 C38.157706,10.098208 37.6017668,10.6239945 37.38,11.31 L37.73,12.7975 L42.205,13.165 C42.555,13.6825 43.265,13.66 43.265,14.725 L44.94,14.655 L46.1025,14.2625 C47.3875,15.8925 48.3525,17.93 48.9325,20.4425 L47.615,21.3925 L47.2575,22.55 L47.2275,26.63 C47.2275,26.63 46.3875,27.49 46.2575,27.225 C46.1325,26.96 46.295,23.88 45.81,23.575 C45.369988,23.2705336 44.7941147,23.2462146 44.33,23.5125 C43.8275,22.48 43.1525,21.7425 42.2675,21.39 C42.0177587,20.81038 41.7156741,20.2547453 41.365,19.73 C41.02,19.8175 40.78,19.98 40.655,20.2625 C40.802624,19.7552895 40.758121,19.2114622 40.53,18.735 L38.465,18.335 L37.0225,18.2425 C36.4875,18.3975 36.1225,18.7975 36.025,19.5325 L35.22,20.2325 L34.7325,21.985 C34.61,22.4475 36.235,23.185 36.89,23.01 C37.545,22.84 38.795,24.7025 38.795,24.7025 L38.465,26.0275 C38.465,26.0275 37.9575,26.96 37.8275,26.7625 L36.6025,24.8375 C35.7425,24.325 34.8525,24.4125 33.965,24.8375 C33.7575,26.6775 33.705,28.895 33.965,29.8125 C34.215,30.7375 34.6025,31.1375 34.99,31.0025 C35.3775,30.8775 36.9225,29.6775 36.9225,29.6775 C36.9225,29.6775 38.3475,33.5225 38.3475,33.7275 C38.3475,33.9225 40.465,35.5125 40.595,35.5125 C40.72,35.5125 41.17,35.715 41.2375,35.2475 C41.3,34.7825 40.98,33.9225 41.17,33.79 C41.36,33.655 41.62,33.92 41.685,34.585 C41.78,35.5275 41.8625,37.4675 41.7475,37.8975 C41.4875,38.895 40.2025,40.2875 40.2025,40.2875 C40.2025,40.2875 39.8175,41.7425 40.015,41.8125 C40.2025,41.875 40.8525,43.805 41.1125,44.33 C41.3625,44.8625 45.6825,58.3075 54.2425,47.08 C59.475,40.2175 60.63,30.77 57.7175,22.9775 C55.8625,18.0125 51.43,15.395 48.38,9.11500002 L44.26,6.96499998 L44.26,6.96250002 Z" id="路径" fill="#10549A"></path>
                    <path d="M7.50250002,5.805 C7.54000002,7.87249998 8.4225,9.9075 10.59,11.905 C13.055,11.23 15.38,11.16 17.5775,11.74 C20.0725,9.0225 22.7425,8.03500002 25.5325,8.19 C23.585,9.78250002 22.18,11.7575 21.4725,14.2225 C21.76,15.14 22.305,15.9475 23.4725,16.48 C25.4175,16.77 27.585,16.5725 29.715,17.145 L29.585,18.8075 C28.27,21.2875 25.51,22.065 23.275,24.08 C23.61,25.5375 23.4725,26.8125 23.145,28.0175 C22.325,27.335 21.4725,27.0075 20.575,27.0925 L20.415,27.1925 C17.6775,29.9475 19.99,32.28 24.31,34.4575 C25.45,34.6725 26.6275,34.5825 27.7225,34.19 C30.005,32.8975 35.6675,31.5675 36.7325,36.11 C36.2075,36.7775 35.415,36.87 34.545,36.7775 C34.2475,37.0275 33.675,37.1375 33.3875,37.3725 C30.04,40.065 26.5825,41.11 22.5375,40.455 C23.3125,41.42 24.245,42.23 25.335,42.8775 C27.585,43.04 28.8625,43.355 29.01,43.84 L26.9475,43.84 C30.7325,45.53 34.44,45.7825 38.0175,43.935 C38.0425,44.28 37.8225,44.7475 37.5025,45.265 C38.695,44.24 39.7825,42.94 41.045,42.015 L41.24,43.275 C43.3025,42.8125 44.9975,39.485 46.2625,32.865 L47.095,35.2475 C47.915,31.6475 47.895,27.3425 47.515,22.68 C48.52,23.77 49.5075,25.085 50.055,26.9575 C50.22,20.3625 48.35,14.2625 43.7475,10.7125 C44.7625,10.5 46.305,11.1375 49.285,13.43 C47.6275,10.0925 44.7425,6.99249996 40.72,4.07749998 C46.22,5.7225 51.17,9.07749998 55.01,15.5525 C55.0475,14.19 51.875,9.69249996 48.92,7.1325 L49.085,6.2625 L52.57,9.45 L52.76,8.72500002 C57.325,14.175 58.275,18.89 58.35,23.4325 C58.2375,26.6425 57.795,29.675 56.7125,32.3825 C58.675,31.015 59.55,29.575 58.63,24.99 L59.33,22.115 C60.335,26.6275 60.3875,31.5075 58.0225,37.3375 C56.8825,40.525 54.085,43.68 52.1125,46.8525 L54.6325,45.06 L57.355,39.5625 C57.615,41.2625 57.49,43.0725 56.4925,45.1325 C54.5362708,48.2092003 51.8286716,50.7369811 48.625,52.4775 C48.5925,53.3025 48.125,54.1825 46.9675,55.1425 C43.0725,58.1575 37.7575,59.4175 31.1275,59.0575 L32.09,59.982617 C29.445,59.99 26.8375,59.6375 24.29,58.7375 L25.8175,59.755 C10.95,56.045 1.54249998,46.265 1.38,32.96 L0.00499998047,35.485 C-0.0475000195,32.64 0.969999961,30.18 1.44250002,27.54 L1.6725,25.345 L0.6825,27.7575 C1.15000002,24.4 1.845,20.9525 4.4175,16.815 C4.09249998,12.68 5.175,9.03 7.5,5.805 L7.50250002,5.805 Z" id="路径" fill="#E36724"></path>
                    <path d="M21.4725,14.225 C20.5425,18.1175 20.855,21.53 23.2725,24.075 C23.76,23.685 24.185,23.23 24.7725,22.8625 C26.155,22.015 27.8275,21.3675 29.585,18.805 L29.7125,17.145 C28.7325,16.7825 26.17,16.6275 23.47,16.4775 C22.37,15.9925 21.6925,15.2425 21.47,14.2225 L21.4725,14.225 Z M20.415,27.1925 C14.855,26.9425 13.175,30.6025 14.0025,36.7725 C14.1325,33.4725 19.2275,29.465 19.235,29.3875 C19.295,28.5725 19.7075,27.845 20.415,27.1925 L20.415,27.1925 Z M35.1075,36.8075 C33.92,36.1875 32.2075,36.1625 29.775,36.9725 C24.36,38.325 19.915,37.56 16.195,35.1875 C16.8125,37.2225 18.47,39.01 22.2475,40.2925 C24.27,40.6775 26.285,40.725 28.285,40.1525 C29.4540433,39.8117898 30.5552964,39.271313 31.54,38.555 C32.735,37.56 33.92,36.8125 35.1075,36.805 L35.1075,36.8075 Z M10.59,11.905 L4.86499998,16.415 C5.7075,14.1825 6.87,12.0525 9.105,10.275 L10.59,11.905 L10.59,11.905 Z" id="形状" fill="#D5562C"></path>
                    <path d="M21.5175,21.155 C21.4325,20.89 22.91,20.3025 23.06,20.295 C23.22,20.2875 25.235,19.9275 25.4475,20.03 L26.155,20.3575 C27.56,19.8175 28.275,19.325 28.8925,18.605 L28.8525,19.9575 C28.3675,20.7425 25.4025,22.5675 23.95,23.445 C23.8875,23.475 23.8425,23.57 23.79,23.6075 C23.4325,23.86 23.2975,24.0625 23.2725,24.08 C23.1975,24.13 21.86,22.18 21.5175,21.155 Z" id="路径" fill="#F0B991"></path>
                    <path d="M27.4725,16.675 L28.605,17.175 L28.8925,18.6 L28.855,19.9575 L29.6,18.735 C29.7225,18.26 29.785,17.7725 29.6325,17.24 C29.4169658,17.0195227 29.1315253,16.8807791 28.825,16.8475 L27.4725,16.675 L27.4725,16.675 Z" id="路径" fill="#7E3430"></path>
                    <path d="M13.2825,11.4 C14.7230946,11.2700349 16.1752966,11.3849938 17.5775,11.74 C19.975,9.06 22.665,8.09000004 25.5325,8.19 C23.6264874,9.69739226 22.2257897,11.7504697 21.5175,14.075 C20.765,16.51 20.9175,18.8375 21.5175,21.1 C21.8425,22.125 22.4525,23.12 23.2725,24.075 C23.5625,25.4925 23.4925,26.8025 23.145,28.015 C22.27,27.27 21.38,26.965 20.49,27.14 C14.925,26.815 13.145,30.43 14.005,36.7725 C11.7775,30.9625 13.6475,26.63 19.48,23.91 C17.38,20.7075 18.195,16.1 19.0925,13.1625 C17.815,12.2175 15.685,11.7325 13.2825,11.4025 L13.2825,11.4 Z M36.7325,36.1075 C35.9325,33.11 33.38,32.3325 29.305,33.5 C27.365,34.5875 24.6975,34.915 23.41,33.955 C23.3875,33.9375 23.365,33.915 23.3425,33.905 C22.1025,33.2575 21.0475,32.59 20.235,31.6375 C20.1425,31.5275 20.02,31.45 19.915,31.3575 L19.5275,32.365 C19.465,34.7025 23.01,36.6975 27.5575,35.8825 C31.615,35.155 34.5725,35.3875 36.7325,36.1075 Z" id="形状" fill="#FF9D00"></path>
                    <path d="M44.4825,39.4175 C45.3125,37.355 45.8525,35.1475 46.2625,32.8675 L47.095,35.25 C47.865,31.2 47.96,27 47.515,22.6825 C48.6025,23.8825 49.545,25.22 50.055,26.96 C50.0175,18.805 47.6425,13.66 43.75,10.715 C45.0575,10.6525 46.815,11.38 49.285,13.4325 C47.27,9.50749998 44.16,6.63250002 40.72,4.08250002 C45.245,5.28250002 49.985,7.575 55.01,15.5575 L53.1175,10.4825 L49.085,6.26749998 L52.5025,9.39250002 L52.7625,8.72500002 C59.8875,17.475 58.965,25.025 56.715,32.3825 L44.4825,39.4175 L44.4825,39.4175 Z" id="路径" fill="#F5B044"></path>
                    <path d="M51.3125,33.9325 C54.23,29.4275 55.0375,23.85 53.8275,17.24 C58.33,25.715 58.3425,35.365 52.0275,46.6825 L47.7775,49.3325 L51.3125,33.9325 Z" id="路径" fill="#FF9D00"></path>
                    <path d="M41.92,42.9325 C44.11,41.3025 45.4025,37.8325 46.2325,32.89 C47.44,34.7325 47.7775,37.48 47.265,41.115 C49.15,38.74 49.6225,34.0725 50.0325,29.31 C53.1425,38.3725 51.2225,46.31 46,50.9675 C46.2875,50.725 43.2425,50.005 44.2575,48.7125 C46.52,45.8625 47.1875,39.91 46.595,39.8 C44.4125,42.72 43.0375,43.2275 41.92,42.9325 L41.92,42.9325 Z" id="路径" fill="#FF9D00"></path>
                    <path d="M35.865,48.7125 C41.4025,47.2875 44.6575,44.4425 46.4275,40.6825 C46.32,45.8775 44.4275,49.8325 39.7975,51.8925 C36.99,51.1325 35.905,50.025 35.865,48.7125 L35.865,48.7125 Z" id="路径" fill="#FF9D00"></path>
                    <path d="M45.225,53.5225 L43.8125,54.9475 L45.3575,54.9775 C43.4725,56.045 41.4625,56.3625 39.4325,56.5025 C40.8675,55.3 42.825,54.3225 45.225,53.5225 Z" id="路径" fill="#10549A"></path>
                </g>
            </g>
        </g>
    </g>
</svg>