<?xml version="1.0" encoding="UTF-8"?>
<svg width="60px" height="60px" viewBox="0 0 60 60" version="1.1" xmlns="http://www.w3.org/2000/svg" xmlns:xlink="http://www.w3.org/1999/xlink">
    <title>Safari</title>
    <g id="海康学院" stroke="none" stroke-width="1" fill="none" fill-rule="evenodd">
        <g id="ie提示" transform="translate(-1065.000000, -572.000000)" fill-rule="nonzero">
            <g id="编组-12" transform="translate(711.000000, 391.000000)">
                <g id="Safari" transform="translate(354.000000, 181.000000)">
                    <path d="M59.9558893,30.1541502 C59.9558893,46.6135892 46.6128777,59.9566008 30.1534387,59.9566008 C13.6939998,59.9566008 0.350988153,46.6135892 0.350988153,30.1541502 C0.350988153,13.6947112 13.6939998,0.35169962 30.1534387,0.35169962 C46.6128777,0.35169962 59.9558893,13.6947112 59.9558893,30.1541502 Z" id="路径" fill="#107DDD"></path>
                    <path d="M29.7201581,2.34023712 C29.7201581,2.10015698 29.9147815,1.90553358 30.1548617,1.90553358 C30.3949418,1.90553358 30.5895652,2.10015698 30.5895652,2.34023712 L30.5895652,7.35320158 C30.5895652,7.59328172 30.3949418,7.78790513 30.1548617,7.78790513 C29.9147815,7.78790513 29.7201581,7.59328172 29.7201581,7.35320158 L29.7201581,2.34023712 L29.7201581,2.34023712 Z M27.2243478,2.08695654 C27.3388935,2.07501845 27.4534873,2.10909825 27.5428939,2.181691 C27.6323004,2.25428376 27.6891875,2.35943621 27.7010277,2.47399208 L27.9201581,4.56996047 C27.9320962,4.68450617 27.8980164,4.7991 27.8254236,4.88850653 C27.7528308,4.97791305 27.6476784,5.03480012 27.5331225,5.04664029 C27.4183467,5.05898087 27.3033836,5.02508631 27.2136605,4.95245334 C27.1239374,4.87982037 27.0668482,4.77443449 27.0550198,4.65960475 L26.8373123,2.56363636 C26.8245892,2.44893828 26.8583787,2.33392709 26.9311199,2.24433776 C27.0038611,2.15474844 27.1094816,2.09805981 27.2243478,2.08695654 Z M33.0170751,2.08837947 C32.8116074,2.10825076 32.6485697,2.27009847 32.6271937,2.47541501 L32.4066403,4.5713834 C32.3825811,4.72988268 32.4475651,4.88878154 32.5757949,4.985 C32.7040247,5.08121847 32.8747548,5.09919007 33.0202086,5.03178041 C33.1656624,4.96437074 33.2623079,4.82248553 33.2717787,4.66245062 L33.492332,2.56648223 C33.5057528,2.436538 33.4601205,2.30743398 33.3680235,2.21478545 C33.2759264,2.12213691 33.1470971,2.07573467 33.0170751,2.08837947 L33.0170751,2.08837947 Z M24.3045059,2.51810276 C24.4173984,2.4937068 24.5353589,2.51547114 24.6321121,2.57854787 C24.7288654,2.64162459 24.7963755,2.74077472 24.8196048,2.85391302 L25.856917,7.75731226 C25.9064262,7.99189138 25.7563973,8.22219044 25.5218182,8.27169959 C25.2872391,8.32120874 25.05694,8.17117988 25.0074309,7.93660076 L23.9686957,3.03320158 C23.9446977,2.92034408 23.966628,2.8025759 24.0296405,2.70592113 C24.092653,2.60926636 24.1915602,2.54168203 24.3045059,2.51810276 L24.3045059,2.51810276 Z M35.936917,2.51381836 C35.7304042,2.51209031 35.5512675,2.65611376 35.5086166,2.85818182 L34.4670356,7.76015813 C34.4171335,7.99513018 34.5671624,8.2260663 34.8021344,8.27596839 C35.0371065,8.32587047 35.2680426,8.17584162 35.3179447,7.94086956 L36.3595257,3.03889325 C36.3864184,2.91109066 36.3545233,2.77796583 36.272635,2.67622584 C36.1907467,2.57448585 36.0675142,2.51487646 35.936917,2.51381836 Z M21.4344664,3.3149407 C21.5438943,3.27872725 21.6632664,3.28783842 21.7659307,3.34023999 C21.868595,3.39264156 21.9460021,3.48396982 21.9808696,3.59383402 L22.6325691,5.59873519 C22.6806094,5.74641438 22.6462144,5.90850473 22.5423406,6.02394838 C22.4384668,6.13939202 22.280895,6.19065032 22.1289809,6.15841477 C21.9770669,6.12617922 21.85389,6.01534717 21.8058498,5.86766798 L21.1541502,3.8627668 C21.1183568,3.75295335 21.127813,3.63340193 21.1804252,3.53058113 C21.2330374,3.42776033 21.3244652,3.35015277 21.4344664,3.3149407 L21.4344664,3.3149407 Z M38.7073518,3.2964427 C38.5332872,3.31106433 38.3850987,3.42894149 38.3316996,3.59525689 L37.68,5.60015813 C37.6319598,5.74783732 37.6663547,5.90992768 37.7702285,6.02537133 C37.8741023,6.14081498 38.0316742,6.19207328 38.1835882,6.15983773 C38.3355022,6.12760217 38.4586791,6.01677011 38.5067194,5.86909091 L39.1584189,3.86418974 C39.2040123,3.7254476 39.1767679,3.57307736 39.0859215,3.45873117 C38.995075,3.34438497 38.8528095,3.2833974 38.7073518,3.2964427 L38.7073518,3.2964427 Z M18.6811067,4.34086956 C18.7862316,4.29275113 18.9063109,4.28902226 19.0142188,4.33052529 C19.1221267,4.37202832 19.208759,4.4552617 19.2545455,4.56142293 L21.290751,9.14181818 C21.3696076,9.35699086 21.26818,9.59645836 21.0587643,9.68953202 C20.8493486,9.78260568 20.6036326,9.69742419 20.4967589,9.49470358 L18.4605534,4.91430833 C18.4136344,4.80903345 18.4105187,4.68941885 18.4518936,4.58184416 C18.4932685,4.47426948 18.5757352,4.38757117 18.6811067,4.34086956 L18.6811067,4.34086956 Z M41.4948616,4.31952569 C41.3200546,4.31552283 41.1600286,4.41715332 41.089328,4.57707507 L39.0474309,9.15320158 C38.9734959,9.29666596 38.9849825,9.46925792 39.0772772,9.60165914 C39.169572,9.73406036 39.3275322,9.80454797 39.4877161,9.78481194 C39.6479,9.76507591 39.7840265,9.6583543 39.8414229,9.50750985 L41.8833202,4.9313834 C41.9431463,4.79828691 41.9320796,4.64403433 41.8538663,4.5208413 C41.7756531,4.39764827 41.6407646,4.32200816 41.4948616,4.31952569 Z M16.0444269,5.71399208 C16.252362,5.59472492 16.5175891,5.66596098 16.6377866,5.87335971 L17.6921739,7.69897232 C17.7502339,7.79867265 17.7660594,7.9174358 17.7361323,8.02886062 C17.7062053,8.14028544 17.6330058,8.23513783 17.5328063,8.29233202 C17.4331889,8.35012211 17.3146864,8.36594753 17.2033952,8.33632325 C17.092104,8.30669896 16.997151,8.23405445 16.9394466,8.13438733 L15.8850593,6.30735179 C15.8273874,6.20756173 15.8117787,6.08892945 15.8416753,5.97761777 C15.871572,5.8663061 15.9445183,5.77145838 16.0444269,5.71399208 L16.0444269,5.71399208 Z M44.0177075,5.65707507 C43.8734009,5.66639947 43.7434607,5.74767896 43.6719368,5.87335971 L42.6175494,7.69897232 C42.5594894,7.79867266 42.5436639,7.91743581 42.573591,8.02886063 C42.603518,8.14028545 42.6767175,8.23513784 42.776917,8.29233202 C42.8765345,8.35012209 42.995037,8.3659475 43.1063281,8.33632322 C43.2176193,8.30669893 43.3125723,8.23405444 43.3702767,8.13438733 L44.4232411,6.30735179 C44.5035929,6.16844981 44.5007415,5.99654572 44.4158273,5.86038501 C44.330913,5.7242243 44.1777956,5.646031 44.0177075,5.65707507 L44.0177075,5.65707507 Z M13.5671146,7.28916997 C13.6374357,7.23865515 13.7210682,7.20995284 13.8075889,7.20664029 C13.952361,7.2006893 14.0903841,7.26809594 14.1747036,7.38592886 L17.1173123,11.4426877 C17.2596048,11.6376284 17.2154941,11.9079842 17.0205534,12.0488538 C16.9274739,12.1167963 16.8111317,12.1447898 16.6973336,12.1266249 C16.5835356,12.1084599 16.4816897,12.0456382 16.4143873,11.9520948 L13.4717787,7.89533595 C13.4036895,7.80243163 13.3754652,7.68620786 13.393361,7.5724226 C13.4112568,7.45863734 13.4737946,7.35668835 13.5671146,7.28916997 L13.5671146,7.28916997 Z M46.5320158,7.22798416 C46.3872985,7.22229377 46.2493925,7.28964322 46.1649012,7.40727273 L43.2166008,11.4597629 C43.0943009,11.6537638 43.1434437,11.9093713 43.3289623,12.0441915 C43.5144808,12.1790117 43.7727715,12.1468224 43.9195257,11.9705929 L46.8678261,7.91810276 C46.9362941,7.82533026 46.9647496,7.70899845 46.9468354,7.59509634 C46.9289212,7.48119424 46.8661302,7.3792134 46.7724901,7.31193678 C46.7028295,7.25997024 46.6188832,7.23066354 46.5320158,7.22798416 L46.5320158,7.22798416 Z M11.2747826,9.17881425 C11.3600771,9.10103262 11.4730002,9.06070299 11.5882708,9.06685432 C11.7035414,9.07300565 11.811531,9.12512413 11.8880632,9.21154153 L13.2981818,10.7781818 C13.375774,10.8634636 13.416109,10.9761929 13.4102314,11.0913406 C13.4043538,11.2064882 13.35275,11.3145246 13.2668775,11.3914625 C13.1813572,11.4691371 13.0683963,11.5095076 12.9530163,11.5036318 C12.8376363,11.497756 12.7293609,11.4461188 12.6521739,11.3601581 L11.2420553,9.79351777 C11.081425,9.61470717 11.0960741,9.33955821 11.2747826,9.17881425 L11.2747826,9.17881425 Z M48.7247431,9.07067197 C48.6096194,9.07707654 48.5016965,9.12873628 48.4245059,9.21438733 L47.0129644,10.7810277 C46.9355471,10.8664929 46.8954594,10.9793319 46.9016044,11.0944839 C46.9077494,11.2096358 46.9596184,11.3175677 47.0456917,11.3943083 C47.1308021,11.4722643 47.2436148,11.5128413 47.358881,11.5069576 C47.4741472,11.501074 47.582242,11.4492209 47.6589723,11.3630039 L49.0705138,9.79636364 C49.1479311,9.71089842 49.1880189,9.5980594 49.1818739,9.48290743 C49.1757289,9.36775547 49.1238598,9.25982366 49.0377866,9.18308299 C48.9526743,9.10525036 48.839926,9.06476348 48.7247431,9.07067197 L48.7247431,9.07067197 Z M9.16031619,11.2548616 C9.23778662,11.1695857 9.34554635,11.1180041 9.46055337,11.1111462 L9.46055337,11.1125691 C9.57565201,11.105459 9.68868211,11.1455333 9.77359683,11.2235573 L13.4988143,14.5759684 C13.6772044,14.7366767 13.6915384,15.0115703 13.5308301,15.1899605 C13.3701217,15.3683507 13.0952281,15.3826846 12.9168379,15.2219763 L9.19304346,11.8695652 C9.01433494,11.7088213 8.9996858,11.4336723 9.16031619,11.2548616 L9.16031619,11.2548616 Z M50.8619763,11.1267984 C50.7468776,11.1196883 50.6338475,11.1597626 50.5489328,11.2377866 L46.8222925,14.5887747 C46.664025,14.7532274 46.6596063,15.0119835 46.8121665,15.1817441 C46.9647267,15.3515047 47.2224835,15.3746493 47.4028459,15.2347826 L51.1294862,11.8837945 C51.2621592,11.7671027 51.3105255,11.5814507 51.2516542,11.4148575 C51.1927829,11.2482644 51.0385096,11.1342219 50.8619763,11.1267984 L50.8619763,11.1267984 Z M7.32474311,13.5656917 C7.40945464,13.4490886 7.54637722,13.3819592 7.69043478,13.3864032 C7.77704052,13.3904627 7.86059427,13.4196324 7.93090909,13.4703557 L9.63699607,14.7097233 C9.73063615,14.777 9.79342717,14.8789808 9.81134134,14.9928829 C9.82925552,15.106785 9.80080006,15.2231168 9.73233202,15.3158893 C9.66502968,15.4094327 9.56318378,15.4722544 9.44938571,15.4904193 C9.33558763,15.5085843 9.21924541,15.4805907 9.12616598,15.4126482 L7.42007906,14.1732806 C7.32634698,14.1057419 7.26352665,14.0035146 7.24561811,13.8893811 C7.22770957,13.7752475 7.25620109,13.6586926 7.32474311,13.5656917 L7.32474311,13.5656917 Z M52.630672,13.4034782 C52.5440725,13.4063657 52.4603198,13.4351092 52.3901977,13.4860079 L50.6841107,14.7239525 C50.5585452,14.8149494 50.4910642,14.9660223 50.507087,15.1202635 C50.5231098,15.2745048 50.6202023,15.4084816 50.7617906,15.471726 C50.9033788,15.5349705 51.0679523,15.5178743 51.1935178,15.4268775 L52.8996048,14.1889328 C52.993468,14.1218733 53.0565433,14.0199961 53.0747269,13.906081 C53.0929106,13.792166 53.0646858,13.675715 52.9963636,13.5827668 C52.9126716,13.4649578 52.7750585,13.3974898 52.630672,13.4034782 L52.630672,13.4034782 Z M5.69122528,16.0301977 C5.74838439,15.9299457 5.84334795,15.8567928 5.9548667,15.827108 C6.06638546,15.7974231 6.18514988,15.8136843 6.28458499,15.872253 L10.6245059,18.3780237 C10.7589677,18.4555489 10.8418563,18.5989197 10.8419485,18.7541296 C10.8420405,18.9093395 10.759322,19.0528085 10.6249523,19.1304932 C10.4905826,19.2081779 10.3249756,19.2082762 10.1905138,19.130751 L5.8505929,16.6235573 C5.7503934,16.5663631 5.67719397,16.4715107 5.64726692,16.3600859 C5.61733986,16.2486611 5.63316532,16.129898 5.69122528,16.0301977 L5.69122528,16.0301977 Z M54.2713043,15.813913 C54.1848002,15.8081944 54.0985658,15.828514 54.0237154,15.872253 L49.6837945,18.3780237 C49.5493327,18.4555489 49.4664441,18.5989197 49.466352,18.7541296 C49.46626,18.9093395 49.5489784,19.0528085 49.6833481,19.1304932 C49.8177178,19.2081779 49.9833248,19.2082762 50.1177866,19.130751 L54.4591304,16.6235573 C54.6252895,16.5283454 54.7094018,16.3354798 54.6661246,16.1489289 C54.6228474,15.9623781 54.4624118,15.8262441 54.2713043,15.813913 L54.2713043,15.813913 Z M4.38213437,18.6583399 C4.42818988,18.5524328 4.51493554,18.4695211 4.62281499,18.4282967 C4.73069444,18.3870723 4.85062651,18.3910054 4.95557314,18.4392095 L6.8807905,19.2972332 C7.08611103,19.4030459 7.17307618,19.650774 7.0789498,19.8617078 C6.98482342,20.0726416 6.74236483,20.1733688 6.52648223,20.0912253 L4.60126481,19.2317787 C4.4958867,19.1851122 4.41348776,19.0983236 4.37234864,18.9906674 C4.33120951,18.8830111 4.33473191,18.763389 4.38213437,18.6583399 L4.38213437,18.6583399 Z M55.5305929,18.4192778 C55.4736759,18.4192778 55.4167589,18.4320949 55.3612648,18.4562846 L53.4360475,19.3143083 C53.2154941,19.4124901 53.1173123,19.6671937 53.2154941,19.887747 C53.2618946,19.9933794 53.3485711,20.0760984 53.4562551,20.1175153 C53.5639391,20.1589322 53.6837066,20.1556148 53.7889328,20.1083004 L55.7155731,19.2502767 C55.9019663,19.1645524 56.0032303,18.9603435 55.958652,18.760084 C55.9140737,18.5598246 55.735749,18.4178529 55.5305929,18.4192778 L55.5305929,18.4192778 Z M3.2964427,21.4031621 C3.3316214,21.2931936 3.40930282,21.2018523 3.51219491,21.1494709 C3.615087,21.0970895 3.73464995,21.0880155 3.8442688,21.1242688 L8.60964428,22.6781028 C8.7570693,22.726143 8.86766648,22.8491843 8.89977493,23.0008782 C8.93188338,23.1525721 8.88062507,23.3098728 8.76530851,23.4135265 C8.64999194,23.5171802 8.48813645,23.5514395 8.34071143,23.5033992 L3.57533595,21.9509882 C3.46559616,21.9154823 3.37450402,21.837753 3.32217589,21.7349656 C3.26984776,21.6321782 3.26058843,21.5127885 3.2964427,21.4031621 L3.2964427,21.4031621 Z M56.6433202,21.1228459 C56.5851787,21.1181842 56.5266871,21.1249518 56.4711462,21.1427668 L51.7043478,22.692332 C51.4895175,22.776296 51.3774388,23.0132248 51.448791,23.2325667 C51.5201432,23.4519087 51.7501668,23.5775512 51.9732806,23.5190514 L56.7400791,21.9694862 C56.9383518,21.9070467 57.0645074,21.7127845 57.0409043,21.5062569 C57.0173011,21.2997293 56.8505682,21.1389401 56.6433202,21.1228459 Z M2.55083003,24.2874309 C2.59348092,24.0853628 2.77261757,23.9413393 2.97913044,23.943083 C3.00758891,23.943083 3.03747038,23.9459289 3.06592886,23.9530435 L5.12774704,24.3913043 C5.27949312,24.4235853 5.40249059,24.5343698 5.45040748,24.6819262 C5.49832436,24.8294827 5.46388096,24.9913938 5.36005176,25.1066693 C5.25622256,25.2219448 5.09878169,25.2730715 4.9470356,25.2407905 L2.88521742,24.8025296 C2.77253413,24.7786278 2.67397559,24.710909 2.61125447,24.6142918 C2.54853335,24.5176746 2.52679558,24.4000859 2.55083003,24.2874309 L2.55083003,24.2874309 Z M57.3320158,23.9473518 C57.3024463,23.9481473 57.2729679,23.9510001 57.2437945,23.9558893 L55.1819763,24.3941502 C55.0691003,24.4177041 54.9703,24.4853494 54.9075152,24.5820647 C54.8447304,24.6787799 54.8231582,24.7965596 54.8475889,24.909249 C54.8708182,25.0223873 54.9383282,25.1215375 55.0350815,25.1846142 C55.1318348,25.2476909 55.2497953,25.2694553 55.3626877,25.2450593 L57.4245059,24.8067984 C57.5373819,24.7832445 57.6361822,24.7155992 57.698967,24.6188839 C57.7617518,24.5221687 57.783324,24.404389 57.7588933,24.2916996 C57.7173563,24.0895426 57.5383845,23.945172 57.3320158,23.9473518 L57.3320158,23.9473518 Z M2.0627668,27.1845059 C2.08961045,26.9467108 2.30278233,26.7747775 2.54086956,26.7988933 L7.52537548,27.3253755 C7.64010376,27.3371888 7.74536378,27.3943297 7.81777075,27.4841036 C7.89017772,27.5738776 7.92373526,27.68885 7.91098815,27.8034782 C7.89953015,27.9180874 7.84269022,28.0233471 7.75314185,28.0957877 C7.66359349,28.1682284 7.5487826,28.2018265 7.43430833,28.1890909 L2.44980234,27.6626087 C2.21103091,27.6372221 2.03788013,27.42333 2.0627668,27.1845059 L2.0627668,27.1845059 Z M57.8613439,26.8358893 C57.8320912,26.831627 57.8023752,26.831627 57.7731225,26.8358893 L52.7871937,27.3552569 C52.5571021,27.3901833 52.3951528,27.5998735 52.4195158,27.831322 C52.4438788,28.0627705 52.6459401,28.2341438 52.8782609,28.2203952 L57.8627668,27.6996048 C58.0846748,27.6771489 58.2534314,27.4901439 58.2530645,27.2671029 C58.2526965,27.0440618 58.0833247,26.8576139 57.8613439,26.8358893 L57.8613439,26.8358893 Z M1.93470124,30.1541502 C1.93470124,29.9136759 2.12822135,29.7201581 2.36869566,29.7201581 L4.47604745,29.7201581 C4.71794469,29.7201581 4.91146246,29.9136759 4.91146246,30.1541502 C4.91146246,30.3960475 4.71794469,30.5895652 4.47604745,30.5895652 L2.36869566,30.5895652 C2.25334684,30.5895652 2.14274307,30.5436465 2.06131274,30.4619492 C1.97988241,30.3802519 1.93432538,30.2694984 1.93470124,30.1541502 L1.93470124,30.1541502 Z M55.832253,29.7201558 C55.7170351,29.7197785 55.6064268,29.7653806 55.5249551,29.8468523 C55.4434834,29.9283241 55.3978812,30.0389324 55.3982585,30.1541502 C55.3982585,30.3960475 55.5917787,30.5895652 55.832253,30.5895652 L57.9410277,30.5895652 C58.0563765,30.5895652 58.1669803,30.5436465 58.2484106,30.4619492 C58.3298409,30.3802519 58.375398,30.2694984 58.3750221,30.1541502 C58.3753994,30.0389324 58.3297973,29.9283241 58.2483255,29.8468523 C58.1668538,29.7653806 58.0562455,29.7197785 57.9410277,29.7201558 L55.832253,29.7201558 L55.832253,29.7201558 Z M7.43146246,32.089328 C7.54608433,32.0769998 7.66088546,32.1109353 7.75038268,32.1836017 C7.83987989,32.2562681 7.89666833,32.3616531 7.90814229,32.4763636 C7.92047053,32.5909855 7.88653501,32.7057866 7.81386862,32.7952838 C7.74120223,32.884781 7.63581727,32.9415695 7.52110675,32.9530435 L2.53660076,33.473834 C2.42197889,33.4861623 2.30717776,33.4522267 2.21768055,33.3795603 C2.12818333,33.3068939 2.07139489,33.2015089 2.05992094,33.0867984 C2.04719792,32.9721003 2.08098739,32.8570891 2.15372858,32.7674998 C2.22646977,32.6779105 2.33209033,32.6212218 2.44695654,32.6101186 L7.43146246,32.089328 L7.43146246,32.089328 Z M52.7871937,32.1192095 C52.567305,32.1437309 52.400766,32.3292593 52.4000358,32.5505098 C52.3993104,32.7717603 52.5646252,32.9583803 52.7843478,32.9843478 L57.7674309,33.51083 C57.8820591,33.5235771 57.9970315,33.4900196 58.0868054,33.4176126 C58.1765794,33.3452057 58.2337203,33.2399457 58.2455336,33.1252174 C58.2582807,33.0105891 58.2247232,32.8956167 58.1523162,32.8058428 C58.0799093,32.7160688 57.9746492,32.6589279 57.8599209,32.6471146 L52.875415,32.1206324 C52.846172,32.1166131 52.816551,32.1161354 52.7871937,32.1192095 L52.7871937,32.1192095 Z M4.9470356,35.064664 C5.05972503,35.0402333 5.17750465,35.0618056 5.2742199,35.1245903 C5.37093515,35.1873751 5.4385805,35.2861754 5.46213437,35.3990514 C5.48616884,35.5117065 5.46443108,35.6292951 5.40170997,35.7259123 C5.33898886,35.8225295 5.24043033,35.8902484 5.12774704,35.9141502 L3.06592886,36.3524111 C2.91418277,36.3846921 2.75674189,36.3335654 2.65291268,36.2182899 C2.54908347,36.1030144 2.51464006,35.9411033 2.56255696,35.7935468 C2.61047385,35.6459903 2.73347133,35.5352059 2.88521742,35.5029249 L4.9470356,35.064664 L4.9470356,35.064664 Z M55.2744664,35.0589723 C55.0497436,35.0544735 54.8587713,35.2222973 54.8343559,35.4457351 C54.8099405,35.6691729 54.9601622,35.8742794 55.1805534,35.9184189 L57.2437945,36.3566798 C57.3955406,36.3887066 57.5528458,36.3373451 57.6564549,36.2219425 C57.760064,36.1065399 57.7942362,35.9446288 57.7460992,35.7971994 C57.6979622,35.64977 57.5748291,35.5392205 57.423083,35.5071937 L55.3612648,35.0689328 C55.3328412,35.062115 55.3036955,35.0587704 55.2744664,35.0589723 L55.2744664,35.0589723 Z M8.33501977,36.790672 C8.44463012,36.7540151 8.5643687,36.7629014 8.66736711,36.8153369 C8.77036551,36.8677725 8.84799852,36.9593662 8.88284587,37.0695652 C8.91909918,37.1791841 8.91002518,37.298747 8.85764374,37.4016391 C8.80526231,37.5045312 8.71392099,37.5822126 8.60395255,37.6173913 L3.83857707,39.1669565 C3.61546314,39.2254566 3.38543937,39.099814 3.31408714,38.8804719 C3.24273491,38.6611299 3.35481374,38.4242009 3.56964428,38.3402371 L8.33501977,36.790672 L8.33501977,36.790672 Z M51.7968379,36.7864032 C51.5910923,36.8040781 51.4262947,36.964279 51.402808,37.1694424 C51.3793213,37.3746059 51.5036508,37.5679055 51.7000791,37.6316205 L56.4654545,39.1854545 C56.6885683,39.2439543 56.9185918,39.1183117 56.989944,38.8989698 C57.0612961,38.679628 56.9492176,38.4426992 56.7343873,38.3587352 L51.9690118,36.8063241 C51.9136222,36.7878193 51.8549897,36.7810354 51.7968379,36.7864032 L51.7968379,36.7864032 Z M6.51936756,40.2014229 C6.62449238,40.1533045 6.74457176,40.1495756 6.85247964,40.1910786 C6.96038752,40.2325817 7.04701986,40.3158151 7.09280634,40.4219763 C7.14020879,40.5270254 7.14373119,40.6466474 7.10259207,40.7543037 C7.06145294,40.86196 6.97905401,40.9487486 6.87367589,40.995415 L4.9470356,41.8534387 C4.80520258,41.9164756 4.64051367,41.8990571 4.5150056,41.8077445 C4.38949752,41.716432 4.32223795,41.565098 4.3385629,41.4107485 C4.35488785,41.2563991 4.45231718,41.1224835 4.59415021,41.0594466 L6.51936756,40.2014229 L6.51936756,40.2014229 Z M53.613913,40.1800791 C53.4055754,40.1736535 53.2220929,40.3162455 53.1768767,40.5197188 C53.1316604,40.723192 53.237482,40.9300739 53.4289328,41.0124901 L55.3541502,41.8705138 C55.4959832,41.9335508 55.6606721,41.9161322 55.7861802,41.8248197 C55.9116883,41.7335071 55.9789479,41.5821731 55.9626229,41.4278236 C55.946298,41.2734742 55.8488686,41.1395587 55.7070356,41.0765218 L53.7818182,40.218498 C53.7289542,40.1946751 53.6718765,40.181615 53.613913,40.1800791 Z M10.1905138,41.1789723 C10.3962568,41.0780546 10.6450089,41.1538823 10.7594714,41.3524092 C10.873934,41.550936 10.8149261,41.8042056 10.6245059,41.9316996 L6.28458499,44.4374704 C6.15008119,44.5202671 5.98121508,44.5234539 5.84368308,44.4457911 C5.70615108,44.3681283 5.62166995,44.221879 5.62308858,44.0639407 C5.62454328,43.9060024 5.71167088,43.7613141 5.8505929,43.686166 L10.1905138,41.1789723 Z M49.8716205,41.1220553 C49.680513,41.1343864 49.5200775,41.2705204 49.4768003,41.4570712 C49.4335232,41.6436221 49.5176354,41.8364877 49.6837945,41.9316996 L54.0237154,44.4374704 C54.1585202,44.5298179 54.3336811,44.5389161 54.477328,44.4610319 C54.620975,44.3831477 54.7089232,44.2313939 54.7050868,44.0680364 C54.7012504,43.9046789 54.6062752,43.757221 54.4591304,43.686166 L50.1177866,41.1789723 C50.043129,41.1361663 49.957491,41.1163656 49.8716205,41.1220553 L49.8716205,41.1220553 Z M9.11478258,44.8828459 C9.30878351,44.7605461 9.56439094,44.8096888 9.69921111,44.9952074 C9.83403127,45.1807259 9.80184203,45.4390165 9.62561267,45.5857707 L7.91952569,46.8237154 C7.72541833,46.9647772 7.45371003,46.9217753 7.31264821,46.727668 C7.17158639,46.5335606 7.2145883,46.2618523 7.40869566,46.1207905 L9.11478258,44.8828459 L9.11478258,44.8828459 Z M50.943083,44.8145455 C50.7509563,44.8052547 50.5757747,44.923946 50.5131716,45.1058246 C50.4505685,45.2877032 50.5155847,45.4890713 50.6727273,45.6 L52.3788143,46.8393676 C52.5043797,46.9306186 52.6690888,46.9479496 52.8108972,46.8848323 C52.9527056,46.8217149 53.0500692,46.6877382 53.0663122,46.5333698 C53.0825552,46.3790015 53.0152097,46.2276937 52.8896443,46.1364427 L51.1835573,44.8970751 C51.1134351,44.8461764 51.0296824,44.8174329 50.943083,44.8145455 L50.943083,44.8145455 Z M12.9068775,45.0749407 C13.0854936,44.9152668 13.3595498,44.9298916 13.5201581,45.107668 C13.5975754,45.1931332 13.6376631,45.3059722 13.6315181,45.4211242 C13.6253731,45.5362761 13.5735041,45.644208 13.4874309,45.7209486 L9.7607905,49.0719368 C9.67532528,49.149354 9.56248626,49.1894418 9.4473343,49.1832968 C9.33218233,49.1771518 9.22425052,49.1252828 9.14750985,49.0392095 C9.06991772,48.9539277 9.02958269,48.8411984 9.03546031,48.7260507 C9.04133792,48.6109031 9.09294175,48.5028667 9.17881425,48.4259289 L12.9068775,45.0749407 L12.9068775,45.0749407 Z M47.0784189,44.9767589 C46.9033936,44.9869205 46.7515355,45.1010635 46.6931205,45.2663656 C46.6347055,45.4316678 46.6811296,45.6158804 46.8109091,45.733755 L50.5347036,49.086166 C50.7147094,49.2311155 50.9766,49.2101772 51.1312889,49.0384688 C51.2859778,48.8667603 51.2795647,48.6041123 51.1166798,48.4401581 L47.3914625,45.087747 C47.3065477,45.009723 47.1935176,44.9696487 47.0784189,44.9767589 L47.0784189,44.9767589 Z M16.3887747,48.3377075 C16.4742647,48.2212673 16.6114959,48.1542474 16.7558893,48.1584189 C16.9176841,48.1623753 17.0637362,48.2563187 17.1344323,48.4019047 C17.2051283,48.5474906 17.1886409,48.7203627 17.0916996,48.8499605 L14.1433992,52.9024506 C14.0552762,53.0368078 13.9003204,53.1117128 13.7402886,53.0973127 C13.5802568,53.0829127 13.4411622,52.9815482 13.3784402,52.8336175 C13.3157181,52.6856869 13.3395641,52.5152362 13.4404743,52.3901977 L16.3887747,48.3377075 L16.3887747,48.3377075 Z M43.5282213,48.176917 C43.4414543,48.1801326 43.3576629,48.2093852 43.287747,48.2608696 C43.1942037,48.3281719 43.131382,48.4300178 43.113217,48.5438159 C43.0950521,48.657614 43.1230456,48.7739562 43.1909882,48.8670356 L46.1350198,52.9237945 C46.2817739,53.1000241 46.5400647,53.1322135 46.7255834,52.9973933 C46.911102,52.862573 46.9602447,52.6069653 46.8379447,52.4129644 L43.895336,48.3562055 C43.8101728,48.2393747 43.6727219,48.1722475 43.5282213,48.176917 Z M12.649328,48.9467194 C12.726706,48.8613193 12.8345195,48.8097118 12.9495652,48.8030039 C13.1251304,48.7942364 13.288747,48.8918966 13.3643586,49.0505877 C13.4399703,49.2092789 13.412744,49.3978701 13.295336,49.5286957 L11.8852174,51.095336 C11.8082795,51.1812084 11.7002432,51.2328123 11.5850955,51.2386899 C11.4699479,51.2445675 11.3572186,51.2042324 11.2719368,51.1266403 C11.1858635,51.0498996 11.1339945,50.9419678 11.1278495,50.8268159 C11.1217045,50.7116639 11.1617923,50.5988249 11.2392095,50.5133597 L12.649328,48.9467194 L12.649328,48.9467194 Z M47.3558893,48.8058498 C47.1796944,48.7947759 47.0144502,48.8918862 46.9383907,49.0512042 C46.8623312,49.2105222 46.8907208,49.4000745 47.0101186,49.5301186 L48.4216601,51.0967589 C48.5253659,51.2119029 48.6826227,51.2629739 48.8341933,51.230734 C48.9857639,51.1984941 49.1086211,51.0878413 49.1564858,50.9404573 C49.2043505,50.7930734 49.1699509,50.6313495 49.066245,50.5162055 L47.6561265,48.9495652 C47.5793202,48.8634015 47.4711713,48.8116336 47.3558893,48.8058498 L47.3558893,48.8058498 Z M20.4683004,50.8007905 C20.5149668,50.6954124 20.6017554,50.6130135 20.7094117,50.5718743 C20.817068,50.5307352 20.93669,50.5342576 21.0417391,50.5816601 C21.1473715,50.6280606 21.2300905,50.7147371 21.2715074,50.8224211 C21.3129243,50.9301052 21.3096069,51.0498726 21.2622925,51.1550988 L19.2203952,55.7326482 C19.1145825,55.9379687 18.8668545,56.0249339 18.6559206,55.9308075 C18.4449868,55.8366811 18.3442597,55.5942225 18.4264032,55.3783399 L20.4683004,50.8007905 L20.4683004,50.8007905 Z M39.4088538,50.5560475 C39.2627886,50.5575393 39.1273421,50.6326479 39.048715,50.7557537 C38.9700879,50.8788596 38.9589019,51.0333327 39.0189723,51.1664822 L41.053755,55.7468775 C41.1568102,55.9568825 41.407386,56.0479289 41.6212155,55.9530636 C41.835045,55.8581983 41.9357038,55.6113268 41.84917,55.3939921 L39.8129644,50.8135968 C39.7427678,50.6538999 39.5832561,50.5522392 39.4088538,50.5560475 L39.4088538,50.5560475 Z M16.9394466,52.175336 C17.0107776,52.0494702 17.140829,51.9681212 17.2852174,51.9590514 C17.4455547,51.9474379 17.5991772,52.0254055 17.6844588,52.1616771 C17.7697404,52.2979487 17.772709,52.4701986 17.6921739,52.609328 L16.6377866,54.4349407 C16.517943,54.6428006 16.2522868,54.7141519 16.0444269,54.5943083 C15.836567,54.4744647 15.7652157,54.2088085 15.8850593,54.0009486 L16.9394466,52.175336 L16.9394466,52.175336 Z M43.0245059,51.9590514 C42.8638016,51.946401 42.7093946,52.0241608 42.6238773,52.160809 C42.5383601,52.2974571 42.5359212,52.4703217 42.6175494,52.609328 L43.6719368,54.4349407 C43.7470847,54.5738631 43.8917731,54.6609911 44.0497116,54.6624459 C44.2076501,54.6638646 44.3538997,54.5793834 44.4315625,54.4418511 C44.5092254,54.3043188 44.5060383,54.1354524 44.4232411,54.0009486 L43.3702767,52.175336 C43.2987527,52.0496552 43.1688125,51.9683758 43.0245059,51.9590514 L43.0245059,51.9590514 Z M24.9917787,52.3674309 C25.0344094,52.1661492 25.212917,52.0227481 25.4186561,52.0244899 C25.5491324,52.0251142 25.6724114,52.084393 25.7543568,52.1859282 C25.8363023,52.2874633 25.8682174,52.4204787 25.8412648,52.5481423 L24.7996838,57.4515415 C24.7497817,57.6861207 24.5191641,57.835831 24.284585,57.7859289 C24.0500059,57.7360268 23.9002956,57.5054092 23.9501977,57.27083 L24.9917787,52.3674309 L24.9917787,52.3674309 Z M34.8739921,52.0273361 C34.7435158,52.02796 34.6202369,52.0872389 34.5382914,52.188774 C34.456346,52.2903091 34.4244308,52.4233246 34.4513834,52.5509882 L35.4901186,57.4543873 C35.5223996,57.6061334 35.633184,57.7291309 35.7807405,57.7770478 C35.9282969,57.8249647 36.0902081,57.7905213 36.2054836,57.6866921 C36.3207591,57.5828629 36.3718858,57.425422 36.3396048,57.2736759 L35.3022925,52.3716996 C35.2596416,52.1696315 35.0805049,52.0256081 34.8739921,52.0273361 L34.8739921,52.0273361 Z M29.7201581,52.9565218 C29.7201581,52.7164416 29.9147815,52.5218182 30.1548617,52.5218182 C30.3949418,52.5218182 30.5895652,52.7164416 30.5895652,52.9565218 L30.5895652,57.9680632 C30.5895652,58.2081434 30.3949418,58.4027668 30.1548617,58.4027668 C29.9147815,58.4027668 29.7201581,58.2081434 29.7201581,57.9680632 L29.7201581,52.9565218 L29.7201581,52.9565218 Z M22.1786561,54.1403952 C22.0047388,54.1553873 21.8567308,54.2731209 21.8030039,54.4392095 L21.1513043,56.4455336 C21.1154916,56.554969 21.1247888,56.6741668 21.1771367,56.7767258 C21.2294845,56.8792849 21.3205625,56.9567404 21.4301977,56.9919368 C21.5398165,57.0281901 21.6593794,57.0191161 21.7622715,56.9667346 C21.8651636,56.9143532 21.942845,56.8230119 21.9780237,56.7130435 L22.6297233,54.7081423 C22.674542,54.5694473 22.6469898,54.4175261 22.5563205,54.3034029 C22.4656513,54.1892798 22.3238928,54.1280939 22.1786561,54.1403952 L22.1786561,54.1403952 Z M37.9560475,54.1617391 C38.1839369,54.0879919 38.4284855,54.2128136 38.5024506,54.4406324 L39.1541502,56.4455336 C39.2284139,56.6738259 39.1035492,56.9190959 38.8752569,56.9933597 C38.6469647,57.0676234 38.4016946,56.9427586 38.3274309,56.7144664 L37.6757312,54.7095652 C37.6399378,54.5997518 37.6493941,54.4802003 37.7020063,54.3773795 C37.7546185,54.2745587 37.8460462,54.1969512 37.9560475,54.1617391 L37.9560475,54.1617391 Z M27.4278261,55.2588143 C27.2223585,55.2786855 27.0593207,55.4405333 27.0379447,55.6458498 L26.8173913,57.7418182 C26.8046579,57.8566696 26.838407,57.9718414 26.9111141,58.061656 C26.9838212,58.1514707 27.0894414,58.2084609 27.2044269,58.2199209 C27.3190487,58.2322492 27.4338499,58.1983137 27.5233471,58.1256473 C27.6128443,58.0529809 27.6696328,57.9475959 27.6811067,57.8328854 L27.9016601,55.736917 C27.9155499,55.6071169 27.8702751,55.4779594 27.7783834,55.3852399 C27.6864918,55.2925204 27.5577455,55.2460891 27.4278261,55.2588143 L27.4278261,55.2588143 Z M32.7766008,55.2616601 C32.8911465,55.249722 33.0057403,55.2838018 33.0951469,55.3563945 C33.1845534,55.4289873 33.2414405,55.5341398 33.2532806,55.6486957 L33.4724111,57.744664 C33.5013289,57.9052482 33.4380377,58.0685226 33.3084419,58.167661 C33.1788461,58.2667995 33.0046991,58.2851609 32.8572773,58.2152303 C32.7098554,58.1452996 32.6139043,57.9988151 32.6086957,57.8357312 L32.3895652,55.7383399 C32.3768422,55.6236418 32.4106316,55.5086306 32.4833728,55.4190413 C32.556114,55.329452 32.6617346,55.2727633 32.7766008,55.2616601 L32.7766008,55.2616601 Z" id="形状" fill="#F4F2F3"></path>
                    <polygon id="路径" fill="#000000" points="50.5190514 12.7745455 26.747668 26.5868775 11.7173123 50.2486957 33.7057707 33.9618972"></polygon>
                    <polygon id="路径" fill="#FF5150" points="33.5606324 33.7214229 26.747668 26.5868775 50.9188933 10.3256917"></polygon>
                    <polygon id="路径" fill="#F1F1F1" points="33.5606324 33.7214229 26.746245 26.5854545 9.3894071 49.9826087"></polygon>
                    <polygon id="路径" fill="#000000" points="9.3894071 49.9826087 33.5606324 33.7214229 50.9188933 10.3256917"></polygon>
                </g>
            </g>
        </g>
    </g>
</svg>