<?xml version="1.0" encoding="UTF-8"?>
<svg width="60px" height="60px" viewBox="0 0 60 60" version="1.1" xmlns="http://www.w3.org/2000/svg" xmlns:xlink="http://www.w3.org/1999/xlink">
    <title>guge-2</title>
    <g id="海康学院" stroke="none" stroke-width="1" fill="none" fill-rule="evenodd">
        <g id="ie提示" transform="translate(-798.000000, -572.000000)" fill-rule="nonzero">
            <g id="编组-12" transform="translate(711.000000, 391.000000)">
                <g id="guge-2" transform="translate(87.000000, 181.000000)">
                    <path d="M0.0125483466,30 C0.0200500195,46.53 13.42255,59.925 29.95005,59.925 C46.48255,59.92 59.88005,46.5175 59.8750514,29.9875 C59.8750514,13.4575 46.47505,0.0574999805 29.94255,0.0574999805 C22.0026577,0.0581626923 14.3883357,3.21342173 8.7751562,8.82894549 C3.16197675,14.4444692 0.00989738756,22.0601081 0.0125483466,30 L0.0125483466,30 Z" id="路径" fill="#FFFFFF"></path>
                    <path d="M15.11005,26.1325 L6.54255,11.3025 C12.6663804,3.59711595 22.1886275,-0.602953547 32.0080535,0.0701844883 C41.8274795,0.743322523 50.6874988,6.20352705 55.70255,14.6725 L31.28505,14.6725 C23.8306485,14.0752676 17.0183471,18.9017884 15.11005,26.1325 L15.11005,26.1325 Z" id="路径" fill="#DD4E41"></path>
                    <path d="M40.65505,19.0125 L57.84505,19.0125 C59.20755,22.49 59.89755,26.1975 59.88005,29.935 C59.89005,46.3425 46.68255,59.6975 30.27505,59.87 L42.54005,38.665 C46.7966043,32.5348758 46.0039823,24.2271408 40.66505,19.0125 L40.65505,19.0125 L40.65505,19.0125 Z" id="路径" fill="#FFCD41"></path>
                    <path d="M19.07505,30 C19.011217,26.076968 21.0659958,22.4238523 24.4516828,20.4410819 C27.8373698,18.4583115 32.0287117,18.4534922 35.4189494,20.4284715 C38.8091871,22.4034507 40.8723612,26.0518315 40.81755,29.975 C40.7345608,35.9150368 35.899225,40.6887755 29.9586124,40.6956135 C24.0179998,40.7024368 19.171699,35.9398303 19.07505,30 Z" id="路径" fill="#4C8BF5"></path>
                    <path d="M34.06755,44.77 L25.50005,59.6575 C10.855052,57.4356313 0.023792444,44.8575657 8.31364445e-06,30.045 C-0.00859188281,24.89931 1.32717534,19.8406303 3.87505002,15.37 L16.08505,36.47 C18.6191891,41.8367593 24.0101414,45.2712549 29.94505,45.3 C31.3362494,45.2837184 32.7207265,45.1041559 34.07005,44.765 L34.07005,44.77 L34.06755,44.77 Z" id="路径" fill="#1DA362"></path>
                </g>
            </g>
        </g>
    </g>
</svg>